<svg width="800" height="420" viewBox="0 0 800 420" xmlns="http://www.w3.org/2000/svg">
  <defs>
    <linearGradient id="bg" x1="0%" y1="0%" x2="100%" y2="100%">
      <stop offset="0%" style="stop-color:#0f1117"/>
      <stop offset="100%" style="stop-color:#1a1d27"/>
    </linearGradient>
  </defs>
  <rect width="800" height="420" fill="url(#bg)"/>

  <!-- Browser chrome -->
  <rect x="60" y="30" width="680" height="360" rx="10" fill="#1e2130" stroke="#2d3148" stroke-width="1.5"/>
  <rect x="60" y="30" width="680" height="38" rx="10" fill="#252840"/>
  <rect x="60" y="50" width="680" height="18" fill="#252840"/>
  <circle cx="88" cy="49" r="6" fill="#ff5f57"/>
  <circle cx="108" cy="49" r="6" fill="#febc2e"/>
  <circle cx="128" cy="49" r="6" fill="#28c840"/>
  <rect x="160" y="39" width="380" height="20" rx="10" fill="#1a1d2e"/>
  <text x="350" y="53" font-family="monospace" font-size="10" fill="#555" text-anchor="middle">coursebooking.app/courses</text>

  <!-- Navbar -->
  <rect x="60" y="68" width="680" height="36" fill="#1a1d2e"/>
  <text x="90" y="91" font-family="sans-serif" font-size="13" fill="#7c8cf8" font-weight="bold">📚 CourseBook</text>
  <text x="490" y="91" font-family="sans-serif" font-size="11" fill="#888">Browse</text>
  <text x="540" y="91" font-family="sans-serif" font-size="11" fill="#888">My Courses</text>
  <text x="610" y="91" font-family="sans-serif" font-size="11" fill="#888">Dashboard</text>
  <rect x="660" y="79" width="70" height="18" rx="9" fill="#7c8cf8"/>
  <text x="695" y="92" font-family="sans-serif" font-size="10" fill="#fff" text-anchor="middle">Profile</text>

  <!-- Search bar -->
  <rect x="80" y="116" width="640" height="32" rx="16" fill="#13151f" stroke="#2d3148" stroke-width="1"/>
  <text x="110" y="136" font-family="sans-serif" font-size="11" fill="#555">🔍  Search courses...</text>

  <!-- Course cards -->
  <!-- Card 1 -->
  <rect x="80" y="162" width="196" height="190" rx="6" fill="#13151f" stroke="#2d3148" stroke-width="1"/>
  <rect x="80" y="162" width="196" height="90" rx="6" fill="#1a1d2e"/>
  <text x="178" y="215" font-family="sans-serif" font-size="30" fill="#7c8cf8" text-anchor="middle">⚛️</text>
  <text x="178" y="272" font-family="sans-serif" font-size="11" fill="#ccc" text-anchor="middle" font-weight="bold">React Fundamentals</text>
  <text x="178" y="290" font-family="sans-serif" font-size="9" fill="#888" text-anchor="middle">12 modules · 8 hrs</text>
  <rect x="96" y="300" width="164" height="16" rx="8" fill="#7c8cf8" opacity="0.15" stroke="#7c8cf8" stroke-width="1"/>
  <text x="178" y="312" font-family="sans-serif" font-size="9" fill="#7c8cf8" text-anchor="middle">Enroll Now</text>
  <text x="178" y="340" font-family="sans-serif" font-size="10" fill="#f9c74f" text-anchor="middle">★★★★★</text>

  <!-- Card 2 -->
  <rect x="302" y="162" width="196" height="190" rx="6" fill="#13151f" stroke="#2d3148" stroke-width="1"/>
  <rect x="302" y="162" width="196" height="90" rx="6" fill="#1a1d2e"/>
  <text x="400" y="215" font-family="sans-serif" font-size="30" fill="#28c840" text-anchor="middle">🟢</text>
  <text x="400" y="272" font-family="sans-serif" font-size="11" fill="#ccc" text-anchor="middle" font-weight="bold">Node.js &amp; Express</text>
  <text x="400" y="290" font-family="sans-serif" font-size="9" fill="#888" text-anchor="middle">10 modules · 6 hrs</text>
  <rect x="318" y="300" width="164" height="16" rx="8" fill="#28c840" opacity="0.15" stroke="#28c840" stroke-width="1"/>
  <text x="400" y="312" font-family="sans-serif" font-size="9" fill="#28c840" text-anchor="middle">Enroll Now</text>
  <text x="400" y="340" font-family="sans-serif" font-size="10" fill="#f9c74f" text-anchor="middle">★★★★☆</text>

  <!-- Card 3 -->
  <rect x="524" y="162" width="196" height="190" rx="6" fill="#13151f" stroke="#2d3148" stroke-width="1"/>
  <rect x="524" y="162" width="196" height="90" rx="6" fill="#1a1d2e"/>
  <text x="622" y="215" font-family="sans-serif" font-size="30" fill="#f9c74f" text-anchor="middle">🍃</text>
  <text x="622" y="272" font-family="sans-serif" font-size="11" fill="#ccc" text-anchor="middle" font-weight="bold">MongoDB Mastery</text>
  <text x="622" y="290" font-family="sans-serif" font-size="9" fill="#888" text-anchor="middle">8 modules · 5 hrs</text>
  <rect x="540" y="300" width="164" height="16" rx="8" fill="#f9c74f" opacity="0.15" stroke="#f9c74f" stroke-width="1"/>
  <text x="622" y="312" font-family="sans-serif" font-size="9" fill="#f9c74f" text-anchor="middle">Enroll Now</text>
  <text x="622" y="340" font-family="sans-serif" font-size="10" fill="#f9c74f" text-anchor="middle">★★★★★</text>

  <!-- Pagination -->
  <text x="400" y="380" font-family="sans-serif" font-size="10" fill="#555" text-anchor="middle">Showing 3 of 24 courses</text>
</svg>
