<svg width="800" height="420" viewBox="0 0 800 420" xmlns="http://www.w3.org/2000/svg">
  <defs>
    <linearGradient id="bg" x1="0%" y1="0%" x2="100%" y2="100%">
      <stop offset="0%" style="stop-color:#0f1117"/>
      <stop offset="100%" style="stop-color:#1a1d27"/>
    </linearGradient>
  </defs>
  <rect width="800" height="420" fill="url(#bg)"/>

  <!-- Browser chrome -->
  <rect x="60" y="30" width="680" height="360" rx="10" fill="#1e2130" stroke="#2d3148" stroke-width="1.5"/>
  <rect x="60" y="30" width="680" height="38" rx="10" fill="#252840"/>
  <rect x="60" y="50" width="680" height="18" fill="#252840"/>
  <circle cx="88" cy="49" r="6" fill="#ff5f57"/>
  <circle cx="108" cy="49" r="6" fill="#febc2e"/>
  <circle cx="128" cy="49" r="6" fill="#28c840"/>
  <rect x="160" y="39" width="380" height="20" rx="10" fill="#1a1d2e"/>
  <text x="350" y="53" font-family="monospace" font-size="10" fill="#555" text-anchor="middle">shop.ecommerce.app</text>

  <!-- Navbar -->
  <rect x="60" y="68" width="680" height="36" fill="#1a1d2e"/>
  <text x="90" y="91" font-family="sans-serif" font-size="13" fill="#7c8cf8" font-weight="bold">ShopMERN</text>
  <text x="480" y="91" font-family="sans-serif" font-size="11" fill="#888">Home</text>
  <text x="530" y="91" font-family="sans-serif" font-size="11" fill="#888">Products</text>
  <text x="590" y="91" font-family="sans-serif" font-size="11" fill="#888">Cart (3)</text>
  <rect x="650" y="79" width="70" height="18" rx="9" fill="#7c8cf8"/>
  <text x="685" y="92" font-family="sans-serif" font-size="10" fill="#fff" text-anchor="middle">Login</text>

  <!-- Hero banner -->
  <rect x="60" y="104" width="680" height="80" fill="#13151f"/>
  <text x="120" y="138" font-family="sans-serif" font-size="18" fill="#e8e8e8" font-weight="bold">Summer Sale</text>
  <text x="120" y="158" font-family="sans-serif" font-size="11" fill="#888">Up to 40% off on selected items</text>
  <rect x="120" y="166" width="80" height="10" rx="2" fill="#7c8cf8" opacity="0.6"/>

  <!-- Product grid -->
  <!-- Card 1 -->
  <rect x="80" y="196" width="148" height="150" rx="6" fill="#1a1d2e" stroke="#2d3148" stroke-width="1"/>
  <rect x="80" y="196" width="148" height="80" rx="6" fill="#252840"/>
  <text x="154" y="244" font-family="sans-serif" font-size="22" fill="#555" text-anchor="middle">🎧</text>
  <text x="154" y="296" font-family="sans-serif" font-size="10" fill="#ccc" text-anchor="middle">Headphones</text>
  <text x="154" y="312" font-family="sans-serif" font-size="11" fill="#7c8cf8" text-anchor="middle" font-weight="bold">$89.99</text>
  <rect x="96" y="322" width="116" height="16" rx="8" fill="#7c8cf8" opacity="0.8"/>
  <text x="154" y="334" font-family="sans-serif" font-size="9" fill="#fff" text-anchor="middle">Add to Cart</text>

  <!-- Card 2 -->
  <rect x="246" y="196" width="148" height="150" rx="6" fill="#1a1d2e" stroke="#2d3148" stroke-width="1"/>
  <rect x="246" y="196" width="148" height="80" rx="6" fill="#252840"/>
  <text x="320" y="244" font-family="sans-serif" font-size="22" fill="#555" text-anchor="middle">⌚</text>
  <text x="320" y="296" font-family="sans-serif" font-size="10" fill="#ccc" text-anchor="middle">Smart Watch</text>
  <text x="320" y="312" font-family="sans-serif" font-size="11" fill="#7c8cf8" text-anchor="middle" font-weight="bold">$199.99</text>
  <rect x="262" y="322" width="116" height="16" rx="8" fill="#7c8cf8" opacity="0.8"/>
  <text x="320" y="334" font-family="sans-serif" font-size="9" fill="#fff" text-anchor="middle">Add to Cart</text>

  <!-- Card 3 -->
  <rect x="412" y="196" width="148" height="150" rx="6" fill="#1a1d2e" stroke="#2d3148" stroke-width="1"/>
  <rect x="412" y="196" width="148" height="80" rx="6" fill="#252840"/>
  <text x="486" y="244" font-family="sans-serif" font-size="22" fill="#555" text-anchor="middle">💻</text>
  <text x="486" y="296" font-family="sans-serif" font-size="10" fill="#ccc" text-anchor="middle">Laptop Stand</text>
  <text x="486" y="312" font-family="sans-serif" font-size="11" fill="#7c8cf8" text-anchor="middle" font-weight="bold">$49.99</text>
  <rect x="428" y="322" width="116" height="16" rx="8" fill="#7c8cf8" opacity="0.8"/>
  <text x="486" y="334" font-family="sans-serif" font-size="9" fill="#fff" text-anchor="middle">Add to Cart</text>

  <!-- Card 4 -->
  <rect x="578" y="196" width="148" height="150" rx="6" fill="#1a1d2e" stroke="#2d3148" stroke-width="1"/>
  <rect x="578" y="196" width="148" height="80" rx="6" fill="#252840"/>
  <text x="652" y="244" font-family="sans-serif" font-size="22" fill="#555" text-anchor="middle">📱</text>
  <text x="652" y="296" font-family="sans-serif" font-size="10" fill="#ccc" text-anchor="middle">Phone Case</text>
  <text x="652" y="312" font-family="sans-serif" font-size="11" fill="#7c8cf8" text-anchor="middle" font-weight="bold">$19.99</text>
  <rect x="594" y="322" width="116" height="16" rx="8" fill="#7c8cf8" opacity="0.8"/>
  <text x="652" y="334" font-family="sans-serif" font-size="9" fill="#fff" text-anchor="middle">Add to Cart</text>

  <!-- Pagination -->
  <text x="400" y="375" font-family="sans-serif" font-size="10" fill="#555" text-anchor="middle">← 1  2  3  →</text>
</svg>
