<svg width="800" height="420" viewBox="0 0 800 420" xmlns="http://www.w3.org/2000/svg">
  <defs>
    <linearGradient id="bg" x1="0%" y1="0%" x2="100%" y2="100%">
      <stop offset="0%" style="stop-color:#0f1117"/>
      <stop offset="100%" style="stop-color:#1a1d27"/>
    </linearGradient>
  </defs>
  <rect width="800" height="420" fill="url(#bg)"/>

  <!-- Browser chrome -->
  <rect x="60" y="30" width="680" height="360" rx="10" fill="#1e2130" stroke="#2d3148" stroke-width="1.5"/>
  <rect x="60" y="30" width="680" height="38" rx="10" fill="#252840"/>
  <rect x="60" y="50" width="680" height="18" fill="#252840"/>
  <circle cx="88" cy="49" r="6" fill="#ff5f57"/>
  <circle cx="108" cy="49" r="6" fill="#febc2e"/>
  <circle cx="128" cy="49" r="6" fill="#28c840"/>
  <rect x="160" y="39" width="380" height="20" rx="10" fill="#1a1d2e"/>
  <text x="350" y="53" font-family="monospace" font-size="10" fill="#555" text-anchor="middle">blog-app.vercel.app</text>

  <!-- Navbar -->
  <rect x="60" y="68" width="680" height="36" fill="#1a1d2e"/>
  <text x="90" y="91" font-family="sans-serif" font-size="13" fill="#f9c74f" font-weight="bold">✍ BlogSpace</text>
  <text x="500" y="91" font-family="sans-serif" font-size="11" fill="#888">Home</text>
  <text x="545" y="91" font-family="sans-serif" font-size="11" fill="#888">Posts</text>
  <text x="590" y="91" font-family="sans-serif" font-size="11" fill="#888">About</text>
  <rect x="650" y="79" width="70" height="18" rx="9" fill="#f9c74f" opacity="0.9"/>
  <text x="685" y="92" font-family="sans-serif" font-size="10" fill="#111" text-anchor="middle" font-weight="bold">Write</text>

  <!-- Featured post -->
  <rect x="80" y="116" width="420" height="130" rx="6" fill="#13151f" stroke="#2d3148" stroke-width="1"/>
  <rect x="80" y="116" width="420" height="60" rx="6" fill="#1a1d2e"/>
  <text x="100" y="140" font-family="sans-serif" font-size="9" fill="#7c8cf8">FEATURED</text>
  <text x="100" y="158" font-family="sans-serif" font-size="13" fill="#e8e8e8" font-weight="bold">Getting Started with MERN Stack</text>
  <text x="100" y="192" font-family="sans-serif" font-size="10" fill="#888">A comprehensive guide to building full-stack apps</text>
  <text x="100" y="208" font-family="sans-serif" font-size="10" fill="#888">with MongoDB, Express, React and Node.js...</text>
  <text x="100" y="228" font-family="sans-serif" font-size="9" fill="#555">By Arjuna · 5 min read · Dec 2024</text>

  <!-- Sidebar -->
  <rect x="516" y="116" width="204" height="130" rx="6" fill="#13151f" stroke="#2d3148" stroke-width="1"/>
  <text x="534" y="138" font-family="sans-serif" font-size="10" fill="#888" font-weight="bold">RECENT POSTS</text>
  <line x1="534" y1="144" x2="702" y2="144" stroke="#2d3148" stroke-width="1"/>
  <text x="534" y="162" font-family="sans-serif" font-size="10" fill="#ccc">REST API Best Practices</text>
  <text x="534" y="180" font-family="sans-serif" font-size="10" fill="#ccc">Vue.js vs React in 2024</text>
  <text x="534" y="198" font-family="sans-serif" font-size="10" fill="#ccc">MongoDB Aggregation Guide</text>
  <text x="534" y="216" font-family="sans-serif" font-size="10" fill="#ccc">JWT Auth Deep Dive</text>
  <text x="534" y="234" font-family="sans-serif" font-size="10" fill="#555">Node.js Performance Tips</text>

  <!-- Post list -->
  <rect x="80" y="258" width="640" height="44" rx="4" fill="#13151f" stroke="#2d3148" stroke-width="1"/>
  <text x="100" y="276" font-family="sans-serif" font-size="11" fill="#ccc" font-weight="bold">Understanding Async/Await in JavaScript</text>
  <text x="100" y="293" font-family="sans-serif" font-size="9" fill="#555">By Arjuna · 3 min read · Nov 2024</text>
  <text x="680" y="284" font-family="sans-serif" font-size="9" fill="#7c8cf8" text-anchor="end">Read →</text>

  <rect x="80" y="310" width="640" height="44" rx="4" fill="#13151f" stroke="#2d3148" stroke-width="1"/>
  <text x="100" y="328" font-family="sans-serif" font-size="11" fill="#ccc" font-weight="bold">Building a RESTful API with Express.js</text>
  <text x="100" y="345" font-family="sans-serif" font-size="9" fill="#555">By Arjuna · 7 min read · Oct 2024</text>
  <text x="680" y="336" font-family="sans-serif" font-size="9" fill="#7c8cf8" text-anchor="end">Read →</text>

  <rect x="80" y="362" width="640" height="20" rx="4" fill="#13151f" stroke="#2d3148" stroke-width="1" opacity="0.5"/>
</svg>
