<svg width="800" height="420" viewBox="0 0 800 420" xmlns="http://www.w3.org/2000/svg">
  <defs>
    <linearGradient id="bg" x1="0%" y1="0%" x2="100%" y2="100%">
      <stop offset="0%" style="stop-color:#0f1117"/>
      <stop offset="100%" style="stop-color:#1a1d27"/>
    </linearGradient>
    <linearGradient id="hero" x1="0%" y1="0%" x2="100%" y2="100%">
      <stop offset="0%" style="stop-color:#2a1f0e"/>
      <stop offset="100%" style="stop-color:#1a1208"/>
    </linearGradient>
  </defs>
  <rect width="800" height="420" fill="url(#bg)"/>

  <!-- Browser chrome -->
  <rect x="60" y="30" width="680" height="360" rx="10" fill="#1e2130" stroke="#2d3148" stroke-width="1.5"/>
  <rect x="60" y="30" width="680" height="38" rx="10" fill="#252840"/>
  <rect x="60" y="50" width="680" height="18" fill="#252840"/>
  <circle cx="88" cy="49" r="6" fill="#ff5f57"/>
  <circle cx="108" cy="49" r="6" fill="#febc2e"/>
  <circle cx="128" cy="49" r="6" fill="#28c840"/>
  <rect x="160" y="39" width="380" height="20" rx="10" fill="#1a1d2e"/>
  <text x="350" y="53" font-family="monospace" font-size="10" fill="#555" text-anchor="middle">conyocoffeeroasters.github.io</text>

  <!-- Navbar -->
  <rect x="60" y="68" width="680" height="36" fill="#1a1208"/>
  <text x="100" y="91" font-family="serif" font-size="14" fill="#c8a96e" font-weight="bold">☕ Conyo Roasters</text>
  <text x="490" y="91" font-family="sans-serif" font-size="10" fill="#a08060">Our Story</text>
  <text x="545" y="91" font-family="sans-serif" font-size="10" fill="#a08060">Blends</text>
  <text x="595" y="91" font-family="sans-serif" font-size="10" fill="#a08060">Brew Guide</text>
  <rect x="650" y="79" width="70" height="18" rx="2" fill="#c8a96e" opacity="0.9"/>
  <text x="685" y="92" font-family="sans-serif" font-size="10" fill="#1a1208" text-anchor="middle" font-weight="bold">Shop Now</text>

  <!-- Hero section -->
  <rect x="60" y="104" width="680" height="120" fill="url(#hero)"/>
  <text x="400" y="148" font-family="serif" font-size="24" fill="#c8a96e" text-anchor="middle" font-weight="bold">Crafted with Passion</text>
  <text x="400" y="170" font-family="sans-serif" font-size="11" fill="#a08060" text-anchor="middle">Single-origin beans, roasted to perfection in Manila</text>
  <rect x="330" y="182" width="140" height="24" rx="2" fill="#c8a96e" opacity="0.15" stroke="#c8a96e" stroke-width="1"/>
  <text x="400" y="198" font-family="sans-serif" font-size="10" fill="#c8a96e" text-anchor="middle">Explore Our Blends →</text>

  <!-- Product cards -->
  <rect x="80" y="238" width="180" height="130" rx="4" fill="#1a1208" stroke="#2a1f0e" stroke-width="1"/>
  <rect x="80" y="238" width="180" height="70" rx="4" fill="#251a0a"/>
  <text x="170" y="280" font-family="sans-serif" font-size="28" fill="#c8a96e" text-anchor="middle">☕</text>
  <text x="170" y="326" font-family="serif" font-size="11" fill="#c8a96e" text-anchor="middle">Benguet Dark Roast</text>
  <text x="170" y="342" font-family="sans-serif" font-size="10" fill="#a08060" text-anchor="middle">₱380 / 250g</text>
  <text x="170" y="358" font-family="sans-serif" font-size="9" fill="#c8a96e" text-anchor="middle">Add to Cart</text>

  <rect x="310" y="238" width="180" height="130" rx="4" fill="#1a1208" stroke="#2a1f0e" stroke-width="1"/>
  <rect x="310" y="238" width="180" height="70" rx="4" fill="#251a0a"/>
  <text x="400" y="280" font-family="sans-serif" font-size="28" fill="#c8a96e" text-anchor="middle">🫘</text>
  <text x="400" y="326" font-family="serif" font-size="11" fill="#c8a96e" text-anchor="middle">Sagada Medium Roast</text>
  <text x="400" y="342" font-family="sans-serif" font-size="10" fill="#a08060" text-anchor="middle">₱360 / 250g</text>
  <text x="400" y="358" font-family="sans-serif" font-size="9" fill="#c8a96e" text-anchor="middle">Add to Cart</text>

  <rect x="540" y="238" width="180" height="130" rx="4" fill="#1a1208" stroke="#2a1f0e" stroke-width="1"/>
  <rect x="540" y="238" width="180" height="70" rx="4" fill="#251a0a"/>
  <text x="630" y="280" font-family="sans-serif" font-size="28" fill="#c8a96e" text-anchor="middle">🌿</text>
  <text x="630" y="326" font-family="serif" font-size="11" fill="#c8a96e" text-anchor="middle">Kalinga Light Roast</text>
  <text x="630" y="342" font-family="sans-serif" font-size="10" fill="#a08060" text-anchor="middle">₱340 / 250g</text>
  <text x="630" y="358" font-family="sans-serif" font-size="9" fill="#c8a96e" text-anchor="middle">Add to Cart</text>
</svg>
