<svg width="800" height="420" viewBox="0 0 800 420" xmlns="http://www.w3.org/2000/svg">
  <defs>
    <linearGradient id="bg" x1="0%" y1="0%" x2="100%" y2="100%">
      <stop offset="0%" style="stop-color:#0f1117"/>
      <stop offset="100%" style="stop-color:#1a1d27"/>
    </linearGradient>
  </defs>
  <rect width="800" height="420" fill="url(#bg)"/>

  <!-- Browser chrome -->
  <rect x="60" y="30" width="680" height="360" rx="10" fill="#1e2130" stroke="#2d3148" stroke-width="1.5"/>
  <rect x="60" y="30" width="680" height="38" rx="10" fill="#252840"/>
  <rect x="60" y="50" width="680" height="18" fill="#252840"/>
  <circle cx="88" cy="49" r="6" fill="#ff5f57"/>
  <circle cx="108" cy="49" r="6" fill="#febc2e"/>
  <circle cx="128" cy="49" r="6" fill="#28c840"/>
  <rect x="160" y="39" width="380" height="20" rx="10" fill="#1a1d2e"/>
  <text x="350" y="53" font-family="monospace" font-size="10" fill="#555" text-anchor="middle">jobtracker.vercel.app/dashboard</text>

  <!-- Sidebar -->
  <rect x="60" y="68" width="160" height="322" fill="#13151f"/>
  <text x="90" y="96" font-family="sans-serif" font-size="12" fill="#7c8cf8" font-weight="bold">JobTracker</text>
  <line x1="68" y1="104" x2="212" y2="104" stroke="#2d3148" stroke-width="1"/>
  <rect x="68" y="112" width="144" height="26" rx="4" fill="#252840"/>
  <text x="90" y="129" font-family="sans-serif" font-size="10" fill="#ccc">📊  Dashboard</text>
  <text x="90" y="158" font-family="sans-serif" font-size="10" fill="#555">📋  Applications</text>
  <text x="90" y="182" font-family="sans-serif" font-size="10" fill="#555">📅  Interviews</text>
  <text x="90" y="206" font-family="sans-serif" font-size="10" fill="#555">📁  Documents</text>
  <text x="90" y="230" font-family="sans-serif" font-size="10" fill="#555">⚙️  Settings</text>

  <!-- Stats row -->
  <rect x="232" y="76" width="120" height="60" rx="6" fill="#1a1d2e" stroke="#2d3148" stroke-width="1"/>
  <text x="292" y="100" font-family="sans-serif" font-size="22" fill="#7c8cf8" text-anchor="middle" font-weight="bold">24</text>
  <text x="292" y="118" font-family="sans-serif" font-size="9" fill="#888" text-anchor="middle">Total Applied</text>

  <rect x="364" y="76" width="120" height="60" rx="6" fill="#1a1d2e" stroke="#2d3148" stroke-width="1"/>
  <text x="424" y="100" font-family="sans-serif" font-size="22" fill="#f9c74f" text-anchor="middle" font-weight="bold">6</text>
  <text x="424" y="118" font-family="sans-serif" font-size="9" fill="#888" text-anchor="middle">Interviews</text>

  <rect x="496" y="76" width="120" height="60" rx="6" fill="#1a1d2e" stroke="#2d3148" stroke-width="1"/>
  <text x="556" y="100" font-family="sans-serif" font-size="22" fill="#28c840" text-anchor="middle" font-weight="bold">2</text>
  <text x="556" y="118" font-family="sans-serif" font-size="9" fill="#888" text-anchor="middle">Offers</text>

  <rect x="628" y="76" width="100" height="60" rx="6" fill="#1a1d2e" stroke="#2d3148" stroke-width="1"/>
  <text x="678" y="100" font-family="sans-serif" font-size="22" fill="#ff5f57" text-anchor="middle" font-weight="bold">4</text>
  <text x="678" y="118" font-family="sans-serif" font-size="9" fill="#888" text-anchor="middle">Rejected</text>

  <!-- Job list header -->
  <rect x="232" y="148" width="496" height="24" rx="4" fill="#252840"/>
  <text x="248" y="164" font-family="sans-serif" font-size="10" fill="#888">Company</text>
  <text x="400" y="164" font-family="sans-serif" font-size="10" fill="#888">Role</text>
  <text x="560" y="164" font-family="sans-serif" font-size="10" fill="#888">Status</text>
  <text x="660" y="164" font-family="sans-serif" font-size="10" fill="#888">Date</text>

  <!-- Job rows -->
  <rect x="232" y="178" width="496" height="30" rx="2" fill="#13151f"/>
  <text x="248" y="197" font-family="sans-serif" font-size="10" fill="#ccc">Google</text>
  <text x="400" y="197" font-family="sans-serif" font-size="10" fill="#ccc">Frontend Dev</text>
  <rect x="548" y="186" width="60" height="14" rx="7" fill="#f9c74f" opacity="0.2"/>
  <text x="578" y="197" font-family="sans-serif" font-size="9" fill="#f9c74f" text-anchor="middle">Interview</text>
  <text x="660" y="197" font-family="sans-serif" font-size="9" fill="#555">Dec 10</text>

  <rect x="232" y="214" width="496" height="30" rx="2" fill="#1a1d2e"/>
  <text x="248" y="233" font-family="sans-serif" font-size="10" fill="#ccc">Meta</text>
  <text x="400" y="233" font-family="sans-serif" font-size="10" fill="#ccc">Full Stack Dev</text>
  <rect x="548" y="222" width="60" height="14" rx="7" fill="#28c840" opacity="0.2"/>
  <text x="578" y="233" font-family="sans-serif" font-size="9" fill="#28c840" text-anchor="middle">Offer</text>
  <text x="660" y="233" font-family="sans-serif" font-size="9" fill="#555">Dec 8</text>

  <rect x="232" y="250" width="496" height="30" rx="2" fill="#13151f"/>
  <text x="248" y="269" font-family="sans-serif" font-size="10" fill="#ccc">Shopify</text>
  <text x="400" y="269" font-family="sans-serif" font-size="10" fill="#ccc">Backend Dev</text>
  <rect x="548" y="258" width="60" height="14" rx="7" fill="#7c8cf8" opacity="0.2"/>
  <text x="578" y="269" font-family="sans-serif" font-size="9" fill="#7c8cf8" text-anchor="middle">Applied</text>
  <text x="660" y="269" font-family="sans-serif" font-size="9" fill="#555">Dec 5</text>

  <rect x="232" y="286" width="496" height="30" rx="2" fill="#1a1d2e"/>
  <text x="248" y="305" font-family="sans-serif" font-size="10" fill="#ccc">Netflix</text>
  <text x="400" y="305" font-family="sans-serif" font-size="10" fill="#ccc">Node.js Engineer</text>
  <rect x="548" y="294" width="60" height="14" rx="7" fill="#ff5f57" opacity="0.2"/>
  <text x="578" y="305" font-family="sans-serif" font-size="9" fill="#ff5f57" text-anchor="middle">Rejected</text>
  <text x="660" y="305" font-family="sans-serif" font-size="9" fill="#555">Nov 30</text>

  <rect x="232" y="322" width="496" height="30" rx="2" fill="#13151f"/>
  <text x="248" y="341" font-family="sans-serif" font-size="10" fill="#ccc">Stripe</text>
  <text x="400" y="341" font-family="sans-serif" font-size="10" fill="#ccc">MERN Developer</text>
  <rect x="548" y="330" width="60" height="14" rx="7" fill="#7c8cf8" opacity="0.2"/>
  <text x="578" y="341" font-family="sans-serif" font-size="9" fill="#7c8cf8" text-anchor="middle">Applied</text>
  <text x="660" y="341" font-family="sans-serif" font-size="9" fill="#555">Nov 28</text>

  <rect x="232" y="358" width="496" height="24" rx="2" fill="#13151f" opacity="0.5"/>
</svg>
